<svg width="41" height="41" viewBox="0 0 41 41" fill="none" xmlns="http://www.w3.org/2000/svg">
<rect width="41" height="41" rx="11" fill="white"/>
<path d="M34.6693 12.3342C33.7949 10.8266 31.4871 10.4871 27.9827 11.3444C26.3602 10.0898 24.4185 9.3155 22.378 9.10928C20.3375 8.90307 18.28 9.27327 16.4394 10.1778C14.5988 11.0824 13.0487 12.485 11.9653 14.2264C10.8819 15.9678 10.3086 17.9781 10.3106 20.029C10.3107 20.4994 10.3405 20.9693 10.3997 21.436C7.23474 24.7153 7.28046 26.6584 7.89883 27.7237C8.48177 28.7341 9.69793 29.173 11.2981 29.173C12.4092 29.1501 13.5137 28.9966 14.5889 28.7158C16.2115 29.9691 18.153 30.7424 20.193 30.9478C22.233 31.1532 24.2897 30.7825 26.1296 29.8779C27.9695 28.9732 29.5189 27.5708 30.6019 25.8299C31.6849 24.0889 32.2581 22.0793 32.2564 20.029C32.2566 19.5608 32.2272 19.0932 32.1684 18.6288C33.5971 17.1429 34.5481 15.7312 34.8716 14.5231C35.0945 13.6864 35.027 12.9503 34.6693 12.3342ZM21.2835 10.8849C23.3546 10.887 25.3637 11.5912 26.983 12.8824C28.6023 14.1737 29.7359 15.9757 30.199 17.9944C28.249 19.8301 25.6098 21.7126 23.1043 23.1528C19.9553 24.9599 17.2235 26.0869 15.0449 26.7041C13.7031 25.4527 12.7692 23.8262 12.3646 22.0366C11.9601 20.2469 12.1038 18.3769 12.7769 16.67C13.4501 14.9631 14.6215 13.4984 16.1387 12.4665C17.6559 11.4347 19.4487 10.8836 21.2835 10.8849ZM9.48076 26.8059C9.31388 26.519 9.40646 25.9783 9.73451 25.32C10.0589 24.7031 10.4536 24.1259 10.9107 23.5997C11.3638 24.9125 12.0619 26.1273 12.9681 27.1796C10.9964 27.5111 9.76651 27.2996 9.48076 26.8059ZM21.2835 29.173C19.7417 29.1746 18.2249 28.7836 16.876 28.0369C19.3519 27.1613 21.7408 26.0569 24.0119 24.7382C26.4785 23.322 28.6616 21.7869 30.4207 20.2713C30.3556 22.6523 29.3647 24.9142 27.6585 26.5764C25.9524 28.2386 23.6654 29.1701 21.2835 29.173ZM33.1045 14.0499C32.9102 14.7711 32.397 15.5964 31.6609 16.4651C31.209 15.1507 30.5107 13.9346 29.6035 12.8817C31.2277 12.6131 32.7319 12.6337 33.0896 13.2521C33.1925 13.4315 33.1982 13.7001 33.1045 14.0499Z" fill="#1B1B1B"/>
</svg>
