<svg width="1340" height="826" viewBox="0 0 1340 826" fill="none" xmlns="http://www.w3.org/2000/svg">
<path opacity="0.1" d="M1138.07 636.758C1082.8 688.542 980.386 710.478 859.275 703.937C738.192 697.397 598.587 662.396 469.184 600.463C339.782 538.53 245.128 461.413 196.686 386.816C148.232 312.202 146.066 240.212 201.338 188.428C256.61 136.643 359.027 114.708 480.138 121.249C601.221 127.788 740.826 162.79 870.229 224.723C999.631 286.656 1094.28 363.772 1142.73 438.369C1191.18 512.984 1193.35 584.973 1138.07 636.758Z" stroke="white"/>
<path opacity="0.1" d="M982.359 562.231C945.512 596.752 877.205 611.401 796.347 607.034C715.518 602.669 622.31 579.302 535.908 537.949C449.505 496.596 386.312 445.108 353.974 395.311C321.625 345.496 320.207 297.476 357.054 262.955C393.9 228.433 462.207 213.784 543.065 218.151C623.894 222.516 717.102 245.883 803.505 287.236C889.907 328.589 953.1 380.077 985.438 429.874C1017.79 479.689 1019.21 527.709 982.359 562.231Z" stroke="white"/>
<g filter="url(#filter0_f_12_251)">
<ellipse cx="557" cy="368" rx="264" ry="113" fill="url(#paint0_linear_12_251)"/>
</g>
<g filter="url(#filter1_f_12_251)">
<ellipse cx="523" cy="352" rx="51" ry="57" fill="#F4F1F1"/>
</g>
<circle cx="670" cy="402" r="50" fill="url(#paint1_radial_12_251)"/>
<circle cx="557" cy="362" r="34" fill="url(#paint2_radial_12_251)"/>
<defs>
<filter id="filter0_f_12_251" x="81.6001" y="43.6" width="950.8" height="648.8" filterUnits="userSpaceOnUse" color-interpolation-filters="sRGB">
<feFlood flood-opacity="0" result="BackgroundImageFix"/>
<feBlend mode="normal" in="SourceGraphic" in2="BackgroundImageFix" result="shape"/>
<feGaussianBlur stdDeviation="105.7" result="effect1_foregroundBlur_12_251"/>
</filter>
<filter id="filter1_f_12_251" x="419.1" y="242.1" width="207.8" height="219.8" filterUnits="userSpaceOnUse" color-interpolation-filters="sRGB">
<feFlood flood-opacity="0" result="BackgroundImageFix"/>
<feBlend mode="normal" in="SourceGraphic" in2="BackgroundImageFix" result="shape"/>
<feGaussianBlur stdDeviation="26.45" result="effect1_foregroundBlur_12_251"/>
</filter>
<linearGradient id="paint0_linear_12_251" x1="483.396" y1="313.178" x2="817.735" y2="399.646" gradientUnits="userSpaceOnUse">
<stop stop-color="#E28EFF"/>
<stop offset="0.981115" stop-color="#FFC804"/>
</linearGradient>
<radialGradient id="paint1_radial_12_251" cx="0" cy="0" r="1" gradientUnits="userSpaceOnUse" gradientTransform="translate(695.5 410) rotate(170.538) scale(60.8276)">
<stop offset="0.124" stop-color="#0B1219"/>
<stop offset="1" stop-color="#2E4461"/>
</radialGradient>
<radialGradient id="paint2_radial_12_251" cx="0" cy="0" r="1" gradientUnits="userSpaceOnUse" gradientTransform="translate(571 365.5) rotate(178.652) scale(42.5118)">
<stop offset="0.309341" stop-color="#220F13"/>
<stop offset="1" stop-color="#5A2C32"/>
</radialGradient>
</defs>
</svg>
