<svg width="106" height="22" viewBox="0 0 106 22" fill="none" xmlns="http://www.w3.org/2000/svg">
<path d="M14.9397 7.85075H13.4511C13.3402 7.29646 13.1396 6.78439 12.8492 6.31456C12.5642 5.83945 12.2052 5.42505 11.7723 5.07136C11.3395 4.71767 10.8485 4.44316 10.2995 4.24783C9.75047 4.05251 9.15659 3.95485 8.51783 3.95485C7.4937 3.95485 6.55932 4.22144 5.71468 4.75462C4.87532 5.2878 4.20225 6.07173 3.69546 7.10641C3.19396 8.13582 2.9432 9.3975 2.9432 10.8915C2.9432 12.396 3.19396 13.6629 3.69546 14.6923C4.20225 15.7217 4.87532 16.503 5.71468 17.0362C6.55932 17.5641 7.4937 17.8281 8.51783 17.8281C9.15659 17.8281 9.75047 17.7304 10.2995 17.5351C10.8485 17.3398 11.3395 17.0679 11.7723 16.7195C12.2052 16.3658 12.5642 15.9514 12.8492 15.4763C13.1396 15.0012 13.3402 14.4865 13.4511 13.9322H14.9397C14.8078 14.6765 14.5596 15.3707 14.1954 16.0147C13.8364 16.6535 13.3771 17.2131 12.8176 17.6934C12.2633 18.1738 11.6245 18.5486 10.9013 18.8179C10.1781 19.0871 9.38358 19.2217 8.51783 19.2217C7.15585 19.2217 5.94695 18.8812 4.89115 18.2002C3.83535 17.514 3.00655 16.5479 2.40475 15.3021C1.80822 14.0562 1.50996 12.586 1.50996 10.8915C1.50996 9.1969 1.80822 7.7267 2.40475 6.48085C3.00655 5.23501 3.83535 4.27159 4.89115 3.5906C5.94695 2.90433 7.15585 2.56119 8.51783 2.56119C9.38358 2.56119 10.1781 2.69581 10.9013 2.96504C11.6245 3.22899 12.2633 3.6038 12.8176 4.08947C13.3771 4.56985 13.8364 5.12943 14.1954 5.76819C14.5596 6.40695 14.8078 7.10114 14.9397 7.85075ZM52.3091 6.83718C52.2194 5.93448 51.8208 5.21653 51.1134 4.68335C50.406 4.15017 49.5165 3.88358 48.4449 3.88358C47.69 3.88358 47.0248 4.01292 46.4494 4.27159C45.8793 4.53026 45.4306 4.88923 45.1033 5.34851C44.7813 5.8025 44.6202 6.31984 44.6202 6.90053C44.6202 7.32813 44.7126 7.70294 44.8974 8.02496C45.0822 8.34698 45.3303 8.62413 45.6417 8.8564C45.9585 9.0834 46.3069 9.27872 46.687 9.44237C47.0723 9.60602 47.4603 9.74327 47.851 9.85413L49.5614 10.3451C50.0787 10.4876 50.5961 10.6697 51.1134 10.8915C51.6308 11.1132 52.1032 11.393 52.5308 11.7308C52.9637 12.0634 53.3095 12.4725 53.5682 12.9582C53.8321 13.4386 53.9641 14.0166 53.9641 14.6923C53.9641 15.5581 53.7397 16.3367 53.291 17.0283C52.8423 17.7198 52.1983 18.2689 51.3589 18.6753C50.5195 19.0765 49.5139 19.2771 48.3419 19.2771C47.2386 19.2771 46.2805 19.095 45.4675 18.7308C44.6546 18.3612 44.0158 17.8518 43.5512 17.2025C43.0867 16.5532 42.8254 15.8009 42.7673 14.9457H44.2877C44.3405 15.5845 44.5516 16.1256 44.9212 16.569C45.2907 17.0125 45.7711 17.3503 46.3623 17.5826C46.9536 17.8096 47.6134 17.9231 48.3419 17.9231C49.1496 17.9231 49.8676 17.7885 50.4958 17.5192C51.1293 17.2447 51.6255 16.8646 51.9845 16.379C52.3487 15.888 52.5308 15.3179 52.5308 14.6686C52.5308 14.1196 52.3883 13.6603 52.1032 13.2908C51.8182 12.916 51.4196 12.6019 50.9075 12.3485C50.4008 12.0951 49.8121 11.8707 49.1417 11.6754L47.2017 11.1053C45.9294 10.7252 44.9423 10.1999 44.2402 9.52947C43.5381 8.85904 43.187 8.00384 43.187 6.96388C43.187 6.09285 43.4193 5.32739 43.8838 4.66752C44.3537 4.00236 44.9871 3.48502 45.7843 3.11549C46.5867 2.74068 47.4867 2.55328 48.4845 2.55328C49.4928 2.55328 50.3849 2.73804 51.1609 3.10757C51.9369 3.4771 52.5519 3.98652 53.0059 4.63584C53.4652 5.27988 53.7107 6.01366 53.7424 6.83718H52.3091ZM57.5274 2.78291H59.2378L65.1212 16.9095H65.2638L71.1472 2.78291H72.8576V19H71.464V5.91072H71.3373L65.8656 19H64.5194L59.0477 5.91072H58.9211V19H57.5274V2.78291ZM90.4644 10.8915C90.4644 12.5807 90.1635 14.0509 89.5617 15.3021C88.9599 16.5479 88.1311 17.514 87.0753 18.2002C86.0248 18.8812 84.8159 19.2217 83.4486 19.2217C82.0813 19.2217 80.8698 18.8812 79.814 18.2002C78.7635 17.514 77.9373 16.5479 77.3355 15.3021C76.739 14.0509 76.4407 12.5807 76.4407 10.8915C76.4407 9.20218 76.739 7.73461 77.3355 6.48877C77.9373 5.23765 78.7661 4.27159 79.8219 3.5906C80.8777 2.90433 82.0866 2.56119 83.4486 2.56119C84.8159 2.56119 86.0248 2.90433 87.0753 3.5906C88.1311 4.27159 88.9599 5.23765 89.5617 6.48877C90.1635 7.73461 90.4644 9.20218 90.4644 10.8915ZM89.0232 10.8915C89.0232 9.43973 88.7804 8.19653 88.2947 7.16184C87.8091 6.12188 87.1465 5.32739 86.3072 4.77837C85.4678 4.22936 84.515 3.95485 83.4486 3.95485C82.3875 3.95485 81.4373 4.22936 80.5979 4.77837C79.7586 5.32739 79.0934 6.11924 78.6025 7.15392C78.1168 8.18861 77.874 9.43445 77.874 10.8915C77.874 12.3432 78.1168 13.5864 78.6025 14.6211C79.0882 15.6558 79.7507 16.4502 80.59 17.0045C81.4294 17.5536 82.3822 17.8281 83.4486 17.8281C84.515 17.8281 85.4678 17.5536 86.3072 17.0045C87.1518 16.4555 87.817 15.6637 88.3026 14.629C88.7883 13.589 89.0285 12.3432 89.0232 10.8915ZM102.851 6.83718C102.761 5.93448 102.363 5.21653 101.655 4.68335C100.948 4.15017 100.058 3.88358 98.9867 3.88358C98.2318 3.88358 97.5666 4.01292 96.9912 4.27159C96.4211 4.53026 95.9724 4.88923 95.6451 5.34851C95.3231 5.8025 95.162 6.31984 95.162 6.90053C95.162 7.32813 95.2544 7.70294 95.4392 8.02496C95.624 8.34698 95.8721 8.62413 96.1835 8.8564C96.5003 9.0834 96.8487 9.27872 97.2288 9.44237C97.6141 9.60602 98.0022 9.74327 98.3928 9.85413L100.103 10.3451C100.621 10.4876 101.138 10.6697 101.655 10.8915C102.173 11.1132 102.645 11.393 103.073 11.7308C103.506 12.0634 103.851 12.4725 104.11 12.9582C104.374 13.4386 104.506 14.0166 104.506 14.6923C104.506 15.5581 104.282 16.3367 103.833 17.0283C103.384 17.7198 102.74 18.2689 101.901 18.6753C101.061 19.0765 100.056 19.2771 98.8837 19.2771C97.7804 19.2771 96.8223 19.095 96.0093 18.7308C95.1964 18.3612 94.5576 17.8518 94.0931 17.2025C93.6285 16.5532 93.3672 15.8009 93.3091 14.9457H94.8295C94.8823 15.5845 95.0934 16.1256 95.463 16.569C95.8325 17.0125 96.3129 17.3503 96.9041 17.5826C97.4954 17.8096 98.1552 17.9231 98.8837 17.9231C99.6914 17.9231 100.409 17.7885 101.038 17.5192C101.671 17.2447 102.167 16.8646 102.526 16.379C102.891 15.888 103.073 15.3179 103.073 14.6686C103.073 14.1196 102.93 13.6603 102.645 13.2908C102.36 12.916 101.961 12.6019 101.449 12.3485C100.943 12.0951 100.354 11.8707 99.6835 11.6754L97.7435 11.1053C96.4712 10.7252 95.4841 10.1999 94.782 9.52947C94.0799 8.85904 93.7288 8.00384 93.7288 6.96388C93.7288 6.09285 93.9611 5.32739 94.4256 4.66752C94.8955 4.00236 95.5289 3.48502 96.3261 3.11549C97.1285 2.74068 98.0285 2.55328 99.0263 2.55328C100.035 2.55328 100.927 2.73804 101.703 3.10757C102.479 3.4771 103.094 3.98652 103.548 4.63584C104.007 5.27988 104.252 6.01366 104.284 6.83718H102.851Z" fill="white"/>
<path d="M39.8604 4.98173C39.1411 3.74148 37.2426 3.46221 34.3596 4.16743C33.0249 3.1354 31.4275 2.49838 29.7489 2.32874C28.0703 2.1591 26.3777 2.46364 24.8635 3.20776C23.3493 3.95189 22.0742 5.10577 21.1829 6.53832C20.2917 7.97087 19.8201 9.62467 19.8216 11.3118C19.8218 11.6988 19.8463 12.0854 19.895 12.4693C17.2913 15.1671 17.3289 16.7656 17.8376 17.6419C18.3172 18.4732 19.3176 18.8342 20.6341 18.8342C21.5481 18.8153 22.4567 18.6891 23.3412 18.4581C24.676 19.4891 26.2732 20.1253 27.9514 20.2942C29.6296 20.4632 31.3216 20.1583 32.8352 19.4141C34.3488 18.6698 35.6234 17.5161 36.5144 16.084C37.4053 14.6518 37.8768 12.9985 37.8754 11.3118C37.8756 10.9267 37.8514 10.542 37.803 10.16C38.9784 8.93758 39.7607 7.77631 40.0268 6.78241C40.2102 6.09411 40.1547 5.48855 39.8604 4.98173ZM28.8485 3.78943C30.5523 3.79118 32.2052 4.37047 33.5372 5.43273C34.8693 6.49498 35.802 7.97745 36.1829 9.6381C34.5787 11.1482 32.4076 12.6969 30.3464 13.8817C27.7559 15.3683 25.5086 16.2954 23.7164 16.8032C22.6125 15.7737 21.8442 14.4357 21.5114 12.9634C21.1786 11.4911 21.2968 9.95272 21.8506 8.54854C22.4043 7.14436 23.368 5.93942 24.6162 5.09059C25.8643 4.24176 27.3391 3.78837 28.8485 3.78943ZM19.139 16.8869C19.0017 16.6509 19.0779 16.2061 19.3477 15.6645C19.6146 15.157 19.9393 14.6822 20.3153 14.2493C20.688 15.3293 21.2624 16.3286 22.0078 17.1944C20.3858 17.467 19.3741 17.2931 19.139 16.8869ZM28.8485 18.8342C27.5802 18.8355 26.3324 18.5139 25.2227 17.8996C27.2595 17.1792 29.2248 16.2707 31.093 15.1859C33.1222 14.0208 34.9182 12.758 36.3653 11.5112C36.3117 13.47 35.4965 15.3307 34.093 16.6981C32.6894 18.0655 30.8081 18.8318 28.8485 18.8342ZM38.5731 6.39312C38.4133 6.98645 37.9911 7.66535 37.3855 8.37998C37.0138 7.29875 36.4393 6.29829 35.693 5.43214C37.0291 5.21117 38.2666 5.22809 38.5609 5.73679C38.6455 5.88442 38.6502 6.10539 38.5731 6.39312Z" fill="white"/>
</svg>
