<svg width="203" height="140" viewBox="0 0 203 140" fill="none" xmlns="http://www.w3.org/2000/svg">
<path d="M98.0229 94.7845C94.1455 79.8233 95.9091 75.4048 95.9091 75.4048H202.322C202.322 75.4048 205.293 78.2237 198.798 94.7845C192.303 111.345 101.9 109.746 98.0229 94.7845Z" fill="url(#paint0_linear_46_121)"/>
<ellipse cx="149.116" cy="76.8143" rx="53.5586" ry="21.1415" fill="url(#paint1_linear_46_121)"/>
<path d="M92.3852 81.3949C88.5078 66.4337 90.2714 62.0152 90.2714 62.0152H196.684C196.684 62.0152 199.656 64.8341 193.161 81.3949C186.666 97.9558 96.2627 96.3561 92.3852 81.3949Z" fill="url(#paint2_linear_46_121)"/>
<ellipse cx="143.479" cy="63.4246" rx="53.5586" ry="21.1415" fill="url(#paint3_linear_46_121)"/>
<path d="M98.0229 67.3006C94.1455 52.3394 95.9091 47.9208 95.9091 47.9208H202.322C202.322 47.9208 205.293 50.7397 198.798 67.3006C192.303 83.8615 101.9 82.2618 98.0229 67.3006Z" fill="url(#paint4_linear_46_121)"/>
<ellipse cx="149.116" cy="49.3303" rx="53.5586" ry="21.1415" fill="url(#paint5_linear_46_121)"/>
<path d="M86.7474 53.9109C82.8699 38.9497 84.6336 34.5312 84.6336 34.5312H191.046C191.046 34.5312 194.018 37.3501 187.523 53.9109C181.028 70.4718 90.6249 68.8721 86.7474 53.9109Z" fill="url(#paint6_linear_46_121)"/>
<ellipse cx="137.841" cy="35.9406" rx="53.5586" ry="21.1415" fill="url(#paint7_linear_46_121)"/>
<path d="M92.6886 39.1118C88.8111 24.1506 90.5748 19.7321 90.5748 19.7321H196.987C196.987 19.7321 199.959 22.5509 193.464 39.1118C186.969 55.6727 96.566 54.073 92.6886 39.1118Z" fill="url(#paint8_linear_46_121)"/>
<ellipse cx="143.782" cy="21.1415" rx="53.5586" ry="21.1415" fill="url(#paint9_linear_46_121)"/>
<path d="M3.80103 120.164C-2.33494 95.0067 0.801515 92.6642 0.801515 92.6642H151.802C151.802 92.6642 155.328 92.7003 146.802 120.164C138.276 147.628 9.93699 145.322 3.80103 120.164Z" fill="url(#paint10_linear_46_121)"/>
<ellipse cx="76.303" cy="94.6642" rx="76" ry="30" fill="url(#paint11_linear_46_121)"/>
<path opacity="0.21" d="M138.733 94.6642C138.733 97.9327 137.066 101.098 133.94 104.031C130.814 106.964 126.262 109.629 120.597 111.877C109.268 116.373 93.5835 119.164 76.2334 119.164C58.8833 119.164 43.1987 116.373 31.8701 111.877C26.2043 109.629 21.653 106.964 18.5264 104.031C15.4006 101.098 13.7334 97.9327 13.7334 94.6642C13.7334 91.3957 15.4006 88.2303 18.5264 85.2977C21.653 82.3643 26.2043 79.6996 31.8701 77.4513C43.1987 72.9558 58.8833 70.1642 76.2334 70.1642C93.5835 70.1642 109.268 72.9558 120.597 77.4513C126.262 79.6996 130.814 82.3643 133.94 85.2977C137.066 88.2303 138.733 91.3957 138.733 94.6642Z" stroke="white"/>
<g opacity="0.4">
<path d="M95.2908 105.405C97.8109 103.951 97.0438 100.75 93.6851 97.1016C99.7335 94.9 103.162 92.348 102.231 90.3597C101.998 89.8824 101.548 89.4498 100.927 89.107L99.1994 90.1044C99.556 90.3103 99.7716 90.5171 99.8809 90.7321C100.329 91.6901 98.4861 93.2832 95.1671 94.7875C94.3524 95.159 93.4458 95.5214 92.4916 95.8746C91.2617 94.7136 89.8993 93.6013 88.4134 92.5448C88.7884 91.1879 89.006 89.8181 89.0649 88.4446C93.9419 88.548 97.6017 89.1747 99.2152 90.1062L100.944 89.108C98.8111 87.8763 94.4998 87.1425 89.0411 87.0345C88.8382 83.8941 87.5512 81.4126 85.4193 80.1819L83.6917 81.1793C85.2973 82.1062 86.3973 84.2199 86.5922 87.0263C84.3653 87.0583 81.9862 87.1782 79.52 87.4106C77.6884 86.5497 75.7559 85.7631 73.7363 85.0562C74.307 84.5288 74.9222 84.018 75.5796 83.5254C78.179 81.6038 80.9306 80.5351 82.5901 80.7867C82.961 80.8398 83.3271 80.978 83.6838 81.1838L85.4114 80.1865C84.7616 79.8113 84.0309 79.5505 83.2273 79.4252C79.791 78.8926 75.3878 80.8709 71.5949 84.3581C65.2818 82.4338 59.7629 81.9946 57.2506 83.4449C54.7305 84.8998 55.4976 88.1005 58.8578 91.7478C52.8079 93.9503 49.3795 96.5023 50.3115 98.4897C50.5207 98.9509 50.9708 99.3718 51.6207 99.7469C53.7541 100.979 58.0653 101.712 63.5241 101.82C63.7254 104.962 65.0124 107.441 67.1458 108.673C67.7449 109.034 68.4992 109.296 69.3315 109.433C72.7662 109.967 77.1694 107.989 80.9623 104.501C87.25 106.422 92.7785 106.856 95.2908 105.405ZM90.3661 96.591C89.0286 97.0154 87.6577 97.4038 86.2578 97.7549C86.8703 96.6532 87.3855 95.5342 87.8016 94.4023C88.7399 95.1325 89.6006 95.8617 90.3677 96.5919M78.5594 99.3095C76.9653 99.5595 75.3535 99.7702 73.7283 99.9409C71.1969 98.7163 68.8545 97.367 66.7274 95.9084C67.2992 94.0373 68.1503 92.1983 69.2713 90.4119C72.3692 89.761 75.5569 89.2627 78.8004 88.9222C81.3316 90.1463 83.6741 91.4949 85.8013 92.9529C85.5224 93.8569 85.1657 94.7893 84.7299 95.7382C84.3051 96.6642 83.8106 97.5683 83.259 98.4503C81.713 98.7729 80.1452 99.0596 78.5594 99.3095ZM82.0702 100.172C81.4489 101.014 80.7689 101.82 80.0541 102.572C78.7908 102.13 77.5102 101.632 76.2406 101.086C78.2089 100.837 80.1545 100.533 82.0702 100.172ZM65.9349 100.41C65.9586 99.5639 66.0664 98.669 66.2614 97.733C66.9271 98.1539 67.6166 98.5794 68.3377 98.9957C69.0668 99.4166 69.8039 99.8238 70.5488 100.208C68.9432 100.33 67.3931 100.392 65.9349 100.41ZM64.7334 94.4425C63.8196 93.7362 62.9628 93.0058 62.1657 92.2538C63.4528 91.842 64.8412 91.4522 66.2741 91.0899C65.9745 91.6307 65.6876 92.1824 65.4308 92.7516C65.1757 93.3198 64.9411 93.8835 64.7334 94.4425ZM86.5986 88.4354C86.5748 89.2818 86.467 90.1767 86.2721 91.1128C85.6064 90.6919 84.9169 90.2664 84.1957 89.85C83.4666 89.4291 82.7296 89.0219 81.9846 88.6376C83.5902 88.5159 85.1404 88.4537 86.5986 88.4354ZM76.2929 87.7601C74.3274 88.007 72.3844 88.3102 70.4712 88.6687C71.0747 87.8504 71.7475 87.0497 72.4873 86.2695C73.7426 86.7161 75.0233 87.2139 76.2929 87.7601ZM59.5695 89.3129C57.994 87.0528 57.7547 85.1413 58.9719 84.4386C60.1892 83.7358 63.5082 83.8694 67.4153 84.7836C68.3679 85.0022 69.3537 85.2749 70.3459 85.5714C69.2697 86.7033 68.2696 87.9523 67.3677 89.3038C65.1633 89.792 63.0191 90.3664 60.95 91.0231C60.4417 90.4664 59.981 89.8957 59.5695 89.3129ZM52.662 98.1173C52.2103 97.1611 54.0568 95.5662 57.3743 94.0628C58.1889 93.6913 59.0972 93.328 60.0513 92.9748C61.1973 94.0665 62.5699 95.1901 64.128 96.3055C63.7531 97.6624 63.5355 99.0322 63.4765 100.406C58.5995 100.302 54.9397 99.6756 53.3262 98.7441C53.0184 98.5702 52.7898 98.3553 52.6604 98.1182M76.9602 105.326C74.3623 107.246 71.6092 108.316 69.9497 108.064C69.5788 108.011 69.2142 107.872 68.8576 107.666C67.252 106.74 66.1504 104.627 65.9571 101.819C68.3264 101.786 70.6889 101.657 73.0278 101.436C74.8593 102.297 76.7918 103.084 78.8115 103.79C78.2076 104.346 77.5942 104.859 76.9602 105.326ZM85.1166 104.063C84.164 103.844 83.1781 103.572 82.1859 103.275C83.3234 102.071 84.3184 100.824 85.1642 99.5429C87.4894 99.0241 89.6355 98.4458 91.5818 97.8236C92.0918 98.382 92.5551 98.9543 92.9703 99.5383C94.5458 101.798 94.7851 103.71 93.5679 104.413C92.3426 105.111 89.0236 104.977 85.1166 104.063Z" fill="white"/>
<path d="M72.7183 96.4664C73.6583 97.009 74.9331 97.3139 76.2624 97.3139C77.5917 97.3139 78.8665 97.009 79.8065 96.4664C80.7464 95.9238 81.2745 95.1878 81.2745 94.4204C81.2745 93.653 80.7464 92.9171 79.8065 92.3744C78.8665 91.8318 77.5917 91.5269 76.2624 91.5269C74.9331 91.5269 73.6583 91.8318 72.7183 92.3744C71.7784 92.9171 71.2503 93.653 71.2503 94.4204C71.2503 95.1878 71.7784 95.9238 72.7183 96.4664Z" fill="white"/>
</g>
<defs>
<linearGradient id="paint0_linear_46_121" x1="80.4063" y1="113.107" x2="200.913" y2="85.2708" gradientUnits="userSpaceOnUse">
<stop stop-color="#201A1C"/>
<stop offset="1"/>
</linearGradient>
<linearGradient id="paint1_linear_46_121" x1="101.195" y1="76.8143" x2="190.695" y2="76.8143" gradientUnits="userSpaceOnUse">
<stop stop-color="#221F22"/>
<stop offset="1" stop-color="#0F0E0F"/>
</linearGradient>
<linearGradient id="paint2_linear_46_121" x1="74.7686" y1="99.7176" x2="195.275" y2="71.8813" gradientUnits="userSpaceOnUse">
<stop stop-color="#201A1C"/>
<stop offset="1"/>
</linearGradient>
<linearGradient id="paint3_linear_46_121" x1="95.5578" y1="63.4246" x2="185.057" y2="63.4246" gradientUnits="userSpaceOnUse">
<stop stop-color="#221F22"/>
<stop offset="1" stop-color="#0F0E0F"/>
</linearGradient>
<linearGradient id="paint4_linear_46_121" x1="80.4063" y1="85.6233" x2="200.913" y2="57.7869" gradientUnits="userSpaceOnUse">
<stop stop-color="#201A1C"/>
<stop offset="1"/>
</linearGradient>
<linearGradient id="paint5_linear_46_121" x1="101.195" y1="49.3303" x2="190.695" y2="49.3303" gradientUnits="userSpaceOnUse">
<stop stop-color="#221F22"/>
<stop offset="1" stop-color="#0F0E0F"/>
</linearGradient>
<linearGradient id="paint6_linear_46_121" x1="69.1308" y1="72.2336" x2="189.638" y2="44.3972" gradientUnits="userSpaceOnUse">
<stop stop-color="#201A1C"/>
<stop offset="1"/>
</linearGradient>
<linearGradient id="paint7_linear_46_121" x1="89.92" y1="35.9406" x2="179.419" y2="35.9406" gradientUnits="userSpaceOnUse">
<stop stop-color="#221F22"/>
<stop offset="1" stop-color="#0F0E0F"/>
</linearGradient>
<linearGradient id="paint8_linear_46_121" x1="75.072" y1="57.4345" x2="195.579" y2="29.5981" gradientUnits="userSpaceOnUse">
<stop stop-color="#201A1C"/>
<stop offset="1"/>
</linearGradient>
<linearGradient id="paint9_linear_46_121" x1="95.8612" y1="21.1415" x2="185.36" y2="21.1415" gradientUnits="userSpaceOnUse">
<stop stop-color="#221F22"/>
<stop offset="1" stop-color="#0F0E0F"/>
</linearGradient>
<linearGradient id="paint10_linear_46_121" x1="-21.1973" y1="146.164" x2="149.803" y2="106.664" gradientUnits="userSpaceOnUse">
<stop stop-color="#9FA6F9"/>
<stop offset="0.494" stop-color="#70D8F6"/>
<stop offset="1" stop-color="#8F9EF5"/>
</linearGradient>
<linearGradient id="paint11_linear_46_121" x1="59.7337" y1="54.6642" x2="83.2337" y2="135.664" gradientUnits="userSpaceOnUse">
<stop stop-color="#ED97FF"/>
<stop offset="0.544" stop-color="#A2ADFF"/>
<stop offset="1" stop-color="#CFEEFE"/>
</linearGradient>
</defs>
</svg>
