<svg width="252" height="128" viewBox="0 0 252 128" fill="none" xmlns="http://www.w3.org/2000/svg">
<rect x="39" y="34.6831" width="53.6337" height="53.6337" rx="9" fill="#0052FF"/>
<rect x="178" y="34.6831" width="53.6337" height="53.6337" rx="9" fill="url(#paint0_linear_46_120)"/>
<rect x="108.366" y="34.6831" width="53.6337" height="53.6337" rx="9" fill="white"/>
<path d="M135 82C136.35 81.938 143.977 77.85 146.767 73.258C149.557 68.666 151.035 56.443 151.137 48.379C143.072 48.38 137.853 45.852 135 43C132.145 45.855 126.938 48.38 118.862 48.38C118.862 56.445 120.542 68.597 123.233 73.258C125.924 77.92 133.65 82.061 135 82Z" stroke="#3375BB" stroke-width="5" stroke-linecap="round" stroke-linejoin="round"/>
<path d="M216.131 79.1937L217.941 82.8312C217.941 82.8312 221.441 82.9093 221.641 82.7781C221.841 82.6468 224.134 68.325 213.722 56.8468C202.709 44.7 188.872 44.7875 188.541 45.1875C188.209 45.5844 188.291 50.4406 188.291 50.4406L216.131 79.1937Z" fill="#FF5117"/>
<path d="M202.881 52.8156C209.719 56.6812 214.881 62.5312 217.272 71.6843C218.41 76.0374 217.981 82.8249 217.981 82.8249H213.944L201.935 65.1937L188.291 52.4062V48.6687C188.291 48.6687 196.453 49.1781 202.881 52.8156Z" fill="#FF8E00"/>
<path d="M211.244 67.4125C214.541 73.7625 213.95 82.825 213.95 82.825L210.009 82.8218L196.55 64.9406L188.288 56.4437L188.294 52.4093C188.294 52.4093 193.003 52.3656 200.334 55.9156C206.222 58.7625 209.45 63.9593 211.244 67.4125Z" fill="#F9D81E"/>
<path d="M204.541 64.2281C211.375 72.7687 210.081 82.8218 210.081 82.8218H205.697L198.209 69.2375L188.287 61.0093L188.291 56.4031C188.291 56.4031 198.434 56.5937 204.541 64.2281Z" fill="#97CC37"/>
<path d="M200.959 66.1501C207.778 72.6969 206.262 82.8219 206.262 82.8219H202.744L197.5 69.6782L188.287 64.8563L188.291 60.3094C188.291 60.3094 194.319 59.7782 200.959 66.1501Z" fill="#00C0E9"/>
<path d="M188.428 67.35C188.219 67.0219 188.287 63.6 188.287 63.6C188.287 63.6 193.991 63.4969 198.797 68.9125C203.594 74.3187 202.903 82.8219 202.903 82.8219C202.903 82.8219 199.616 82.9219 199.481 82.6562C199.212 82.125 200.391 75.8656 196.469 71.45C192.406 66.8781 188.544 67.525 188.428 67.35Z" fill="#8177FA"/>
<rect x="172" width="80" height="128" fill="url(#paint1_linear_46_120)"/>
<circle cx="66" cy="61" r="15" fill="white"/>
<rect x="60.5454" y="55.5455" width="11.5909" height="11.5909" rx="2.04545" fill="#0052FF"/>
<rect y="109.997" width="93" height="93" rx="13.1522" transform="rotate(-90 0 109.997)" fill="#FFE6CE"/>
<g clip-path="url(#clip0_46_120)">
<path d="M72.4808 38.1324L49.1008 55.432L53.4485 45.2369L72.4808 38.1324Z" fill="#E17726"/>
<path d="M20.5739 38.1529L39.5554 45.2382L43.6837 55.567L20.5739 38.1529ZM63.0719 74.9239L73.4056 75.1206L69.7941 87.3893L57.1847 83.9176L63.0719 74.9239ZM29.9279 74.9239L35.7932 83.9176L23.2051 87.3895L19.6155 75.1206L29.9279 74.9239Z" fill="#E27625"/>
<path d="M43.1224 52.936L43.5447 66.5756L30.908 66.0007L34.5025 60.5779L34.548 60.5257L43.1224 52.936ZM49.7467 52.7838L58.4519 60.5262L58.4971 60.5781L62.0915 66.0009L49.4576 66.5756L49.7467 52.7838ZM36.1633 74.9635L43.0632 80.3396L35.048 84.2093L36.1633 74.9635ZM56.8379 74.9626L57.93 84.2095L49.9372 80.3392L56.8379 74.9626Z" fill="#E27625"/>
<path d="M50.1137 79.8329L58.2245 83.7602L50.6799 87.3458L50.7582 84.976L50.1137 79.8329ZM42.8841 79.8346L42.2649 84.9373L42.3158 87.343L34.7535 83.7602L42.8841 79.8346Z" fill="#D5BFB2"/>
<path d="M40.5419 68.3558L42.6614 72.8102L35.4454 70.6962L40.5419 68.3558ZM52.4579 68.3563L57.5785 70.6962L50.3389 72.8096L52.4579 68.3563Z" fill="#233447"/>
<path d="M36.7149 74.918L35.5485 84.5044L29.2967 75.1276L36.7149 74.918ZM56.2857 74.9182L63.7041 75.1276L57.4289 84.5048L56.2857 74.9182ZM62.2743 65.4586L56.8755 70.9608L52.713 69.0586L50.7201 73.2482L49.4137 66.0437L62.2743 65.4586ZM30.7232 65.4586L43.5863 66.0437L42.2796 73.2482L40.2864 69.0593L36.146 70.961L30.7232 65.4586Z" fill="#CC6228"/>
<path d="M30.3593 64.3295L36.4675 70.5277L36.6791 76.6467L30.3593 64.3295ZM62.6469 64.3185L56.3157 76.6576L56.554 70.5277L62.6469 64.3185ZM43.2876 64.7071L43.5334 66.2545L44.1409 70.1093L43.7503 81.9486L41.9039 72.4378L41.9033 72.3394L43.2876 64.7071ZM49.7093 64.6856L51.0972 72.3394L51.0966 72.4378L49.2455 81.9725L49.1723 79.5876L48.8834 70.039L49.7093 64.6856Z" fill="#E27525"/>
<path d="M57.097 70.2814L56.8903 75.5977L50.4467 80.6181L49.1441 79.6977L50.6042 72.1769L57.097 70.2814ZM35.9254 70.2814L42.3955 72.1769L43.8556 79.6977L42.553 80.6181L36.1092 75.5973L35.9254 70.2814Z" fill="#F5841F"/>
<path d="M33.5205 82.5863L41.7643 86.4924L41.7294 84.8243L42.4192 84.2188H50.5783L51.293 84.8222L51.2403 86.489L59.4319 82.5961L55.4458 85.89L50.626 89.2004H42.353L37.5364 85.8764L33.5205 82.5863Z" fill="#C0AC9D"/>
<path d="M49.5232 79.3129L50.6887 80.1364L51.3717 85.586L50.3833 84.7515H42.6197L41.65 85.6028L42.3106 80.1368L43.4766 79.3129H49.5232Z" fill="#161616"/>
<path d="M70.9373 38.6113L73.7438 47.0307L71.9911 55.5438L73.2392 56.5065L71.5503 57.795L72.8197 58.7754L71.1389 60.3059L72.1707 61.0532L69.4323 64.2514L58.2006 60.981L58.1033 60.9289L50.0096 54.1013L70.9373 38.6113ZM22.0628 38.6113L42.9907 54.1013L34.8967 60.9289L34.7995 60.981L23.5678 64.2514L20.8293 61.0532L21.8603 60.3065L20.1806 58.7754L21.4474 57.7961L19.7332 56.5039L21.0283 55.5406L19.2562 47.0312L22.0628 38.6113Z" fill="#763E1A"/>
<path d="M57.6513 60.2659L69.552 63.7308L73.4182 75.647H63.218L56.1899 75.7355L61.3011 65.7728L57.6513 60.2659ZM35.3489 60.2659L31.6984 65.7728L36.8102 75.7355L29.7854 75.647H19.6034L23.448 63.731L35.3489 60.2659ZM54.0313 45.1801L50.7027 54.1704L49.9962 66.3151L49.7259 70.1218L49.7044 79.8462H43.2955L43.2747 70.1401L43.0035 66.3119L42.2969 54.1704L38.9687 45.1801H54.0313Z" fill="#F5841F"/>
</g>
<defs>
<linearGradient id="paint0_linear_46_120" x1="204.817" y1="34.6831" x2="204.817" y2="88.3168" gradientUnits="userSpaceOnUse">
<stop stop-color="#143E93"/>
<stop offset="1" stop-color="#01215E"/>
</linearGradient>
<linearGradient id="paint1_linear_46_120" x1="252" y1="64" x2="172" y2="64" gradientUnits="userSpaceOnUse">
<stop stop-color="#181818"/>
<stop offset="1" stop-color="#181818" stop-opacity="0"/>
</linearGradient>
<clipPath id="clip0_46_120">
<rect width="54.4876" height="51.0821" fill="white" transform="translate(19.2563 38.1325)"/>
</clipPath>
</defs>
</svg>
